<svg width="20" height="20" viewBox="0 0 20 20" fill="none" xmlns="http://www.w3.org/2000/svg">
<mask id="mask0_346_344" style="mask-type:alpha" maskUnits="userSpaceOnUse" x="0" y="0" width="20" height="20">
<rect width="20" height="20" fill="#D9D9D9"/>
</mask>
<g mask="url(#mask0_346_344)">
<path d="M1.66675 18.3337V3.33366C1.66675 2.87533 1.83008 2.48283 2.15675 2.15616C2.48286 1.83005 2.87508 1.66699 3.33341 1.66699H16.6667C17.1251 1.66699 17.5176 1.83005 17.8442 2.15616C18.1704 2.48283 18.3334 2.87533 18.3334 3.33366V13.3337C18.3334 13.792 18.1704 14.1845 17.8442 14.5112C17.5176 14.8373 17.1251 15.0003 16.6667 15.0003H5.00008L1.66675 18.3337ZM3.33341 14.3128L4.31258 13.3337H16.6667V3.33366H3.33341V14.3128Z" fill="#3FD0D4"/>
</g>
</svg>
