<svg width="40" height="47" viewBox="0 0 40 47" fill="none" xmlns="http://www.w3.org/2000/svg">
<path d="M36.9921 17.8114L9.63992 0.951019C7.66105 -0.267256 5.26855 -0.317908 3.23984 0.815524C1.21113 1.94878 0 4.01294 0 6.3367V39.9039C0 43.4175 2.83109 46.2914 6.31071 46.3104C6.32021 46.3104 6.32971 46.3105 6.33902 46.3105C7.42642 46.3104 8.55958 45.9696 9.61794 45.3238C10.4693 44.8043 10.7384 43.693 10.219 42.8417C9.69952 41.9902 8.58807 41.7212 7.73693 42.2407C7.2419 42.5426 6.75844 42.6988 6.33016 42.6987C5.01727 42.6916 3.61159 41.5669 3.61159 39.904V6.33679C3.61159 5.33994 4.13113 4.4547 5.00127 3.96853C5.87149 3.48236 6.89764 3.50407 7.74543 4.02606L35.0977 20.8864C35.9198 21.3926 36.3902 22.2366 36.3882 23.2021C36.3862 24.1674 35.9124 25.0095 35.0857 25.514L15.31 37.6224C14.4594 38.1432 14.192 39.2549 14.7128 40.1054C15.2335 40.956 16.3453 41.2234 17.1959 40.7026L36.9693 28.5956C38.8625 27.4407 39.9955 25.4272 40 23.2093C40.0045 20.9916 38.8797 18.9735 36.9921 17.8114Z" fill="white"/>
</svg>
