<svg width="10" height="10" viewBox="0 0 10 10" fill="none" xmlns="http://www.w3.org/2000/svg">
<g clip-path="url(#clip0_346_351)">
<path fill-rule="evenodd" clip-rule="evenodd" d="M9.15616 4.59014L1.31712 0.0641602C1.24542 0.0224266 1.164 0.000298672 1.08104 0H1.07968C0.996674 0.000329659 0.915216 0.022469 0.843465 0.0641992C0.771208 0.105407 0.711218 0.165101 0.669653 0.237153C0.628087 0.309204 0.606443 0.391019 0.606942 0.474199V9.52607C0.606614 9.60931 0.628283 9.69115 0.669757 9.76332C0.711231 9.83548 0.771035 9.89541 0.843117 9.93703C0.915198 9.97864 0.996997 10.0005 1.08023 10.0003C1.16346 10.0002 1.24518 9.97801 1.3171 9.93611L9.15616 5.41012C9.22813 5.36857 9.2879 5.30881 9.32946 5.23684C9.37101 5.16487 9.39289 5.08323 9.39289 5.00013C9.39289 4.91702 9.37101 4.83538 9.32946 4.76341C9.2879 4.69145 9.22813 4.63168 9.15616 4.59014Z" fill="white"/>
</g>
<defs>
<clipPath id="clip0_346_351">
<rect width="10" height="10" fill="white"/>
</clipPath>
</defs>
</svg>
