<svg width="188" height="37" viewBox="0 0 188 37" fill="none" xmlns="http://www.w3.org/2000/svg">
<g clip-path="url(#clip0_152_60)">
<path d="M69.0153 8.72911C68.9356 9.74551 68.8758 10.722 68.8359 11.6587C68.816 12.5954 68.806 13.3129 68.806 13.8111C68.806 14.2495 68.816 14.6681 68.8359 15.0666C68.8558 15.4652 68.8758 15.804 68.8957 16.083H68.2081C67.8893 14.409 67.4807 13.0837 66.9825 12.1071C66.5042 11.1306 65.9262 10.443 65.2486 10.0444C64.571 9.62593 63.7739 9.41667 62.8571 9.41667H62.1695V26.4861C62.1695 27.2833 62.2493 27.8812 62.4087 28.2798C62.5881 28.6784 62.9069 28.9474 63.3653 29.0869C63.8237 29.2065 64.4913 29.2762 65.3682 29.2962V29.8941C64.7504 29.8741 63.9233 29.8542 62.887 29.8343C61.8706 29.8143 60.8044 29.8044 59.6883 29.8044C58.5922 29.8044 57.5559 29.8143 56.5794 29.8343C55.6028 29.8542 54.8156 29.8741 54.2177 29.8941V29.2962C55.1146 29.2762 55.7922 29.2065 56.2505 29.0869C56.7089 28.9474 57.0178 28.6784 57.1773 28.2798C57.3367 27.8812 57.4164 27.2833 57.4164 26.4861V9.41667H56.7587C55.842 9.41667 55.0448 9.62593 54.3672 10.0444C53.6896 10.443 53.1117 11.1306 52.6334 12.1071C52.1551 13.0637 51.7365 14.389 51.3778 16.083H50.6903C50.7301 15.804 50.75 15.4652 50.75 15.0666C50.77 14.6681 50.7799 14.2495 50.7799 13.8111C50.7799 13.3129 50.76 12.5954 50.7201 11.6587C50.7002 10.722 50.6504 9.74551 50.5707 8.72911C51.4874 8.74904 52.4839 8.76897 53.5601 8.7889C54.6562 8.80883 55.7523 8.81879 56.8484 8.81879C57.9445 8.81879 58.931 8.81879 59.8079 8.81879C60.7047 8.81879 61.6912 8.81879 62.7674 8.81879C63.8635 8.81879 64.9597 8.80883 66.0558 8.7889C67.1519 8.76897 68.1384 8.74904 69.0153 8.72911ZM80.7928 14.0203C81.4306 14.0203 81.9487 14.1599 82.3473 14.4389C82.7459 14.6979 83.0349 15.0367 83.2143 15.4553C83.4135 15.8738 83.5132 16.3122 83.5132 16.7706C83.5132 17.508 83.294 18.1158 82.8555 18.5941C82.437 19.0525 81.879 19.2817 81.1815 19.2817C80.4839 19.2817 79.9359 19.1123 79.5373 18.7735C79.1586 18.4148 78.9693 17.9464 78.9693 17.3685C78.9693 16.8105 79.0889 16.3521 79.328 15.9934C79.5871 15.6147 79.906 15.2958 80.2846 15.0367C80.0056 14.957 79.7266 14.967 79.4476 15.0666C79.069 15.1264 78.7102 15.2859 78.3714 15.5449C78.0326 15.7841 77.7437 16.093 77.5045 16.4717C77.2653 16.8304 77.076 17.229 76.9365 17.6674C76.797 18.0859 76.7273 18.4945 76.7273 18.8931V26.815C76.7273 27.7716 76.9564 28.4193 77.4148 28.7581C77.8931 29.0969 78.6006 29.2663 79.5373 29.2663V29.8941C79.0789 29.8741 78.4113 29.8542 77.5344 29.8343C76.6575 29.7944 75.7408 29.7745 74.7841 29.7745C73.987 29.7745 73.1798 29.7944 72.3627 29.8343C71.5456 29.8542 70.9278 29.8741 70.5093 29.8941V29.2663C71.2068 29.2663 71.6951 29.1168 71.9741 28.8179C72.2731 28.5189 72.4225 27.9509 72.4225 27.1139V17.6973C72.4225 16.8005 72.283 16.1428 72.004 15.7243C71.7449 15.2859 71.2467 15.0666 70.5093 15.0666V14.4389C71.147 14.4987 71.7649 14.5285 72.3627 14.5285C73.1998 14.5285 73.977 14.4987 74.6945 14.4389C75.4319 14.3591 76.1094 14.2495 76.7273 14.11V16.8902C76.9664 16.3521 77.2853 15.8638 77.6839 15.4254C78.0825 14.9869 78.5408 14.6481 79.059 14.409C79.5772 14.1499 80.1551 14.0203 80.7928 14.0203ZM88.5885 30.1033C87.6917 30.1033 86.9444 29.9339 86.3465 29.5951C85.7486 29.2563 85.3102 28.8079 85.0311 28.2499C84.7521 27.6719 84.6126 27.0442 84.6126 26.3666C84.6126 25.5096 84.802 24.8121 85.1806 24.274C85.5792 23.7359 86.0874 23.2975 86.7052 22.9587C87.323 22.6199 87.9707 22.3408 88.6483 22.1216C89.3458 21.9024 90.0035 21.6931 90.6213 21.4938C91.2591 21.2746 91.7673 21.0255 92.1459 20.7465C92.5445 20.4476 92.7438 20.0689 92.7438 19.6105V17.2788C92.7438 16.7606 92.6541 16.3023 92.4747 15.9037C92.3153 15.4852 92.0562 15.1663 91.6975 14.9471C91.3587 14.7278 90.9103 14.6182 90.3523 14.6182C89.9537 14.6182 89.5551 14.678 89.1565 14.7976C88.7579 14.8972 88.4291 15.0766 88.17 15.3357C88.728 15.535 89.1565 15.8439 89.4555 16.2624C89.7743 16.661 89.9338 17.1194 89.9338 17.6375C89.9338 18.3151 89.6946 18.8532 89.2163 19.2518C88.7579 19.6504 88.2099 19.8497 87.5721 19.8497C86.8547 19.8497 86.3066 19.6305 85.928 19.192C85.5692 18.7336 85.3899 18.1856 85.3899 17.5478C85.3899 16.9699 85.5294 16.4916 85.8084 16.1129C86.1073 15.7343 86.5159 15.3755 87.034 15.0367C87.5921 14.7179 88.2597 14.4688 89.0369 14.2894C89.8341 14.11 90.6911 14.0203 91.6078 14.0203C92.5246 14.0203 93.3516 14.12 94.089 14.3193C94.8264 14.4987 95.4442 14.8374 95.9424 15.3357C96.4008 15.7941 96.6998 16.362 96.8393 17.0396C96.9788 17.6973 97.0485 18.5343 97.0485 19.5507V27.6819C97.0485 28.1801 97.0983 28.5289 97.198 28.7282C97.2976 28.9076 97.467 28.9972 97.7062 28.9972C97.8856 28.9972 98.055 28.9474 98.2144 28.8478C98.3938 28.7481 98.5831 28.6285 98.7824 28.489L99.0813 28.9972C98.6628 29.356 98.1745 29.635 97.6165 29.8343C97.0784 30.0136 96.4706 30.1033 95.793 30.1033C95.0556 30.1033 94.4677 30.0037 94.0292 29.8044C93.5908 29.5852 93.2719 29.2962 93.0726 28.9375C92.8933 28.5787 92.8036 28.1602 92.8036 27.6819C92.3253 28.4392 91.7473 29.0371 91.0697 29.4755C90.3921 29.8941 89.5651 30.1033 88.5885 30.1033ZM90.711 28.1901C91.1096 28.1901 91.4683 28.1004 91.7872 27.9211C92.126 27.7218 92.4448 27.4029 92.7438 26.9644V20.8362C92.5644 21.1351 92.3153 21.4042 91.9964 21.6433C91.6776 21.8825 91.3388 22.1316 90.98 22.3907C90.6213 22.6298 90.2726 22.8989 89.9338 23.1978C89.6149 23.4967 89.3558 23.8654 89.1565 24.3039C88.9572 24.7423 88.8576 25.2705 88.8576 25.8883C88.8576 26.6655 89.027 27.2435 89.3658 27.6221C89.7046 28.0008 90.153 28.1901 90.711 28.1901ZM114.083 14.4389V15.0367C113.704 15.1364 113.345 15.3755 113.007 15.7542C112.668 16.1129 112.339 16.7307 112.02 17.6076L107.656 29.9538C107.337 29.9339 107.008 29.924 106.669 29.924C106.35 29.924 106.031 29.9339 105.712 29.9538L100.391 16.7407C100.072 15.9635 99.7536 15.4951 99.4347 15.3357C99.1358 15.1563 98.8767 15.0666 98.6575 15.0666V14.4389C99.2952 14.4787 99.9529 14.5186 100.63 14.5584C101.328 14.5784 102.085 14.5883 102.902 14.5883C103.52 14.5883 104.168 14.5784 104.846 14.5584C105.543 14.5186 106.191 14.4787 106.789 14.4389V15.0666C106.37 15.0666 105.991 15.0866 105.653 15.1264C105.334 15.1663 105.115 15.2958 104.995 15.515C104.875 15.7343 104.895 16.1229 105.055 16.6809L108.552 25.9481L108.253 26.3666L110.615 19.8198C110.994 18.7436 111.153 17.8667 111.093 17.1891C111.034 16.4916 110.814 15.9734 110.436 15.6346C110.057 15.2759 109.549 15.0766 108.911 15.0367V14.4389C109.21 14.4588 109.529 14.4787 109.868 14.4987C110.226 14.4987 110.565 14.5086 110.884 14.5285C111.223 14.5285 111.522 14.5285 111.781 14.5285C112.18 14.5285 112.598 14.5186 113.037 14.4987C113.475 14.4787 113.824 14.4588 114.083 14.4389ZM122.099 14.0203C123.853 14.0203 125.228 14.5385 126.224 15.5748C127.221 16.6112 127.719 18.3052 127.719 20.6568H117.884L117.824 20.0888H123.952C123.972 19.1123 123.913 18.2155 123.773 17.3984C123.634 16.5613 123.414 15.8937 123.115 15.3955C122.816 14.8972 122.418 14.6481 121.92 14.6481C121.222 14.6481 120.624 15.0866 120.126 15.9635C119.648 16.8403 119.359 18.2952 119.259 20.328L119.349 20.5073C119.329 20.7465 119.309 20.9956 119.289 21.2547C119.289 21.5138 119.289 21.7828 119.289 22.0618C119.289 23.437 119.478 24.553 119.857 25.41C120.256 26.2669 120.754 26.8947 121.352 27.2933C121.95 27.6719 122.557 27.8613 123.175 27.8613C123.594 27.8613 124.022 27.8015 124.461 27.6819C124.919 27.5424 125.377 27.3032 125.836 26.9644C126.294 26.6057 126.723 26.1075 127.121 25.4697L127.659 25.6491C127.42 26.4064 127.041 27.1438 126.523 27.8613C126.005 28.5787 125.348 29.1666 124.55 29.625C123.753 30.0834 122.797 30.3126 121.681 30.3126C120.325 30.3126 119.13 30.0236 118.093 29.4456C117.057 28.8677 116.24 27.9908 115.642 26.815C115.064 25.6391 114.775 24.1444 114.775 22.3309C114.775 20.4775 115.084 18.9329 115.702 17.6973C116.339 16.4617 117.206 15.5449 118.302 14.9471C119.419 14.3293 120.684 14.0203 122.099 14.0203ZM135.549 6.48706V27.1139C135.549 27.9509 135.688 28.5189 135.967 28.8179C136.266 29.1168 136.764 29.2663 137.462 29.2663V29.8941C137.083 29.8741 136.515 29.8542 135.758 29.8343C135.001 29.7944 134.233 29.7745 133.456 29.7745C132.679 29.7745 131.892 29.7944 131.094 29.8343C130.317 29.8542 129.729 29.8741 129.331 29.8941V29.2663C130.028 29.2663 130.517 29.1168 130.796 28.8179C131.094 28.5189 131.244 27.9509 131.244 27.1139V10.0743C131.244 9.17752 131.104 8.51985 130.825 8.10134C130.566 7.66289 130.068 7.44367 129.331 7.44367V6.81589C129.968 6.87568 130.586 6.90558 131.184 6.90558C132.001 6.90558 132.778 6.87568 133.516 6.81589C134.253 6.73618 134.931 6.62657 135.549 6.48706ZM139.033 8.72911C139.531 8.74904 140.199 8.76897 141.036 8.7889C141.893 8.80883 142.74 8.81879 143.577 8.81879C144.533 8.81879 145.46 8.80883 146.357 8.7889C147.254 8.76897 147.892 8.759 148.27 8.759C151.04 8.759 153.113 9.30706 154.488 10.4032C155.863 11.4993 156.551 12.9143 156.551 14.6481C156.551 15.3656 156.411 16.1229 156.132 16.9201C155.853 17.6973 155.375 18.4247 154.697 19.1023C154.04 19.76 153.133 20.2981 151.977 20.7166C150.821 21.1351 149.366 21.3444 147.613 21.3444H144.563V20.7465H147.314C148.489 20.7465 149.376 20.4775 149.974 19.9394C150.592 19.4013 151.011 18.6938 151.23 17.8169C151.469 16.94 151.588 15.9934 151.588 14.977C151.588 13.0837 151.309 11.6687 150.751 10.732C150.193 9.79533 149.237 9.32699 147.882 9.32699C147.104 9.32699 146.596 9.49639 146.357 9.83519C146.138 10.174 146.028 10.8615 146.028 11.8979V26.5459C146.028 27.3232 146.108 27.9011 146.267 28.2798C146.427 28.6584 146.736 28.9076 147.194 29.0271C147.652 29.1467 148.33 29.2165 149.227 29.2364V29.8941C148.609 29.8741 147.812 29.8542 146.835 29.8343C145.859 29.8143 144.832 29.8044 143.756 29.8044C142.899 29.8044 142.062 29.8143 141.245 29.8343C140.428 29.8542 139.691 29.8741 139.033 29.8941V29.2962C139.671 29.2563 140.149 29.1766 140.468 29.057C140.787 28.9375 140.996 28.6983 141.096 28.3396C141.215 27.9808 141.275 27.4428 141.275 26.7253V11.8979C141.275 11.1605 141.215 10.6224 141.096 10.2836C140.996 9.92487 140.777 9.68572 140.438 9.56614C140.119 9.42664 139.651 9.34692 139.033 9.32699V8.72911ZM168.168 14.0203C168.806 14.0203 169.324 14.1599 169.723 14.4389C170.121 14.6979 170.41 15.0367 170.59 15.4553C170.789 15.8738 170.889 16.3122 170.889 16.7706C170.889 17.508 170.669 18.1158 170.231 18.5941C169.813 19.0525 169.254 19.2817 168.557 19.2817C167.859 19.2817 167.311 19.1123 166.913 18.7735C166.534 18.4148 166.345 17.9464 166.345 17.3685C166.345 16.8105 166.464 16.3521 166.704 15.9934C166.963 15.6147 167.281 15.2958 167.66 15.0367C167.381 14.957 167.102 14.967 166.823 15.0666C166.444 15.1264 166.086 15.2859 165.747 15.5449C165.408 15.7841 165.119 16.093 164.88 16.4717C164.641 16.8304 164.452 17.229 164.312 17.6674C164.172 18.0859 164.103 18.4945 164.103 18.8931V26.815C164.103 27.7716 164.332 28.4193 164.79 28.7581C165.269 29.0969 165.976 29.2663 166.913 29.2663V29.8941C166.454 29.8741 165.787 29.8542 164.91 29.8343C164.033 29.7944 163.116 29.7745 162.16 29.7745C161.362 29.7745 160.555 29.7944 159.738 29.8343C158.921 29.8542 158.303 29.8741 157.885 29.8941V29.2663C158.582 29.2663 159.071 29.1168 159.35 28.8179C159.649 28.5189 159.798 27.9509 159.798 27.1139V17.6973C159.798 16.8005 159.659 16.1428 159.379 15.7243C159.12 15.2859 158.622 15.0666 157.885 15.0666V14.4389C158.523 14.4987 159.14 14.5285 159.738 14.5285C160.575 14.5285 161.352 14.4987 162.07 14.4389C162.807 14.3591 163.485 14.2495 164.103 14.11V16.8902C164.342 16.3521 164.661 15.8638 165.059 15.4254C165.458 14.9869 165.916 14.6481 166.434 14.409C166.953 14.1499 167.531 14.0203 168.168 14.0203ZM179.143 14.0203C180.598 14.0203 181.874 14.2894 182.97 14.8275C184.066 15.3656 184.923 16.2325 185.541 17.4283C186.159 18.624 186.467 20.2084 186.467 22.1814C186.467 24.1544 186.159 25.7388 185.541 26.9346C184.923 28.1104 184.066 28.9673 182.97 29.5054C181.874 30.0435 180.598 30.3126 179.143 30.3126C177.728 30.3126 176.463 30.0435 175.347 29.5054C174.251 28.9673 173.384 28.1104 172.746 26.9346C172.128 25.7388 171.819 24.1544 171.819 22.1814C171.819 20.2084 172.128 18.624 172.746 17.4283C173.384 16.2325 174.251 15.3656 175.347 14.8275C176.463 14.2894 177.728 14.0203 179.143 14.0203ZM179.143 14.6182C178.346 14.6182 177.679 15.2161 177.141 16.4119C176.602 17.5877 176.333 19.5109 176.333 22.1814C176.333 24.8519 176.602 26.7751 177.141 27.9509C177.679 29.1268 178.346 29.7147 179.143 29.7147C179.961 29.7147 180.628 29.1268 181.146 27.9509C181.684 26.7751 181.953 24.8519 181.953 22.1814C181.953 19.5109 181.684 17.5877 181.146 16.4119C180.628 15.2161 179.961 14.6182 179.143 14.6182Z" fill="white"/>
<path fill-rule="evenodd" clip-rule="evenodd" d="M7.8123 3.28639C6.5055 4.20015 5.3238 5.28051 4.29797 6.49666C8.48996 6.10748 13.8157 6.74296 19.9989 9.83459C26.6017 13.1359 31.9186 13.2475 35.6189 12.5338C35.2831 11.5172 34.8604 10.5402 34.3598 9.61145C30.1239 10.0582 24.6936 9.46683 18.365 6.30264C14.3463 4.29328 10.8038 3.46555 7.8123 3.28639ZM31.8854 6.08951C28.5403 2.35207 23.6792 0 18.2686 0C16.6797 0 15.1379 0.202879 13.6683 0.584119C15.6588 1.12725 17.7734 1.92184 19.9989 3.03465C24.6324 5.35134 28.6327 6.09728 31.8854 6.08951ZM36.41 16.102C31.9397 16.9847 25.7667 16.8034 18.365 13.1025C11.4452 9.64267 5.93768 9.68625 2.2232 10.5117C2.03146 10.5543 1.84425 10.599 1.66155 10.6456C1.17523 11.7033 0.787042 12.8155 0.508507 13.9704C0.805995 13.8909 1.11341 13.8154 1.43057 13.7449C5.93689 12.7435 12.304 12.787 19.9989 16.6345C26.9188 20.0944 32.4263 20.0508 36.1408 19.2254C36.2681 19.1971 36.3935 19.1679 36.5168 19.1377C36.5303 18.8498 36.5371 18.5599 36.5371 18.2686C36.5371 17.5355 36.494 16.8125 36.41 16.102ZM35.9204 22.9931C31.4935 23.7671 25.5002 23.47 18.365 19.9025C11.4452 16.4426 5.93768 16.4862 2.2232 17.3116C1.39869 17.4948 0.656974 17.7179 0.00267634 17.9535C0.000892422 18.0583 0 18.1633 0 18.2686C0 28.358 8.17913 36.5371 18.2686 36.5371C26.7242 36.5371 33.8382 30.7925 35.9204 22.9931Z" fill="#3FD0D4"/>
</g>
<defs>
<clipPath id="clip0_152_60">
<rect width="188" height="36.5371" fill="white"/>
</clipPath>
</defs>
</svg>
