<svg width="283" height="62" viewBox="0 0 283 62" fill="none" xmlns="http://www.w3.org/2000/svg">
<path d="M103.89 17.14C103.77 18.67 103.68 20.14 103.62 21.55C103.59 22.96 103.575 24.04 103.575 24.79C103.575 25.45 103.59 26.08 103.62 26.68C103.65 27.28 103.68 27.79 103.71 28.21H102.675C102.195 25.69 101.58 23.695 100.83 22.225C100.11 20.755 99.24 19.72 98.22 19.12C97.2 18.49 96 18.175 94.62 18.175H93.585V43.87C93.585 45.07 93.705 45.97 93.945 46.57C94.215 47.17 94.695 47.575 95.385 47.785C96.075 47.965 97.08 48.07 98.4 48.1V49C97.47 48.97 96.225 48.94 94.665 48.91C93.135 48.88 91.53 48.865 89.85 48.865C88.2 48.865 86.64 48.88 85.17 48.91C83.7 48.94 82.515 48.97 81.615 49V48.1C82.965 48.07 83.985 47.965 84.675 47.785C85.365 47.575 85.83 47.17 86.07 46.57C86.31 45.97 86.43 45.07 86.43 43.87V18.175H85.44C84.06 18.175 82.86 18.49 81.84 19.12C80.82 19.72 79.95 20.755 79.23 22.225C78.51 23.665 77.88 25.66 77.34 28.21H76.305C76.365 27.79 76.395 27.28 76.395 26.68C76.425 26.08 76.44 25.45 76.44 24.79C76.44 24.04 76.41 22.96 76.35 21.55C76.32 20.14 76.245 18.67 76.125 17.14C77.505 17.17 79.005 17.2 80.625 17.23C82.275 17.26 83.925 17.275 85.575 17.275C87.225 17.275 88.71 17.275 90.03 17.275C91.38 17.275 92.865 17.275 94.485 17.275C96.135 17.275 97.785 17.26 99.435 17.23C101.085 17.2 102.57 17.17 103.89 17.14ZM121.619 25.105C122.579 25.105 123.359 25.315 123.959 25.735C124.559 26.125 124.994 26.635 125.264 27.265C125.564 27.895 125.714 28.555 125.714 29.245C125.714 30.355 125.384 31.27 124.724 31.99C124.094 32.68 123.254 33.025 122.204 33.025C121.154 33.025 120.329 32.77 119.729 32.26C119.159 31.72 118.874 31.015 118.874 30.145C118.874 29.305 119.054 28.615 119.414 28.075C119.804 27.505 120.284 27.025 120.854 26.635C120.434 26.515 120.014 26.53 119.594 26.68C119.024 26.77 118.484 27.01 117.974 27.4C117.464 27.76 117.029 28.225 116.669 28.795C116.309 29.335 116.024 29.935 115.814 30.595C115.604 31.225 115.499 31.84 115.499 32.44V44.365C115.499 45.805 115.844 46.78 116.534 47.29C117.254 47.8 118.319 48.055 119.729 48.055V49C119.039 48.97 118.034 48.94 116.714 48.91C115.394 48.85 114.014 48.82 112.574 48.82C111.374 48.82 110.159 48.85 108.929 48.91C107.699 48.94 106.769 48.97 106.139 49V48.055C107.189 48.055 107.924 47.83 108.344 47.38C108.794 46.93 109.019 46.075 109.019 44.815V30.64C109.019 29.29 108.809 28.3 108.389 27.67C107.999 27.01 107.249 26.68 106.139 26.68V25.735C107.099 25.825 108.029 25.87 108.929 25.87C110.189 25.87 111.359 25.825 112.439 25.735C113.549 25.615 114.569 25.45 115.499 25.24V29.425C115.859 28.615 116.339 27.88 116.939 27.22C117.539 26.56 118.229 26.05 119.009 25.69C119.789 25.3 120.659 25.105 121.619 25.105ZM133.354 49.315C132.004 49.315 130.879 49.06 129.979 48.55C129.079 48.04 128.419 47.365 127.999 46.525C127.579 45.655 127.369 44.71 127.369 43.69C127.369 42.4 127.654 41.35 128.224 40.54C128.824 39.73 129.589 39.07 130.519 38.56C131.449 38.05 132.424 37.63 133.444 37.3C134.494 36.97 135.484 36.655 136.414 36.355C137.374 36.025 138.139 35.65 138.709 35.23C139.309 34.78 139.609 34.21 139.609 33.52V30.01C139.609 29.23 139.474 28.54 139.204 27.94C138.964 27.31 138.574 26.83 138.034 26.5C137.524 26.17 136.849 26.005 136.009 26.005C135.409 26.005 134.809 26.095 134.209 26.275C133.609 26.425 133.114 26.695 132.724 27.085C133.564 27.385 134.209 27.85 134.659 28.48C135.139 29.08 135.379 29.77 135.379 30.55C135.379 31.57 135.019 32.38 134.299 32.98C133.609 33.58 132.784 33.88 131.824 33.88C130.744 33.88 129.919 33.55 129.349 32.89C128.809 32.2 128.539 31.375 128.539 30.415C128.539 29.545 128.749 28.825 129.169 28.255C129.619 27.685 130.234 27.145 131.014 26.635C131.854 26.155 132.859 25.78 134.029 25.51C135.229 25.24 136.519 25.105 137.899 25.105C139.279 25.105 140.524 25.255 141.634 25.555C142.744 25.825 143.674 26.335 144.424 27.085C145.114 27.775 145.564 28.63 145.774 29.65C145.984 30.64 146.089 31.9 146.089 33.43V45.67C146.089 46.42 146.164 46.945 146.314 47.245C146.464 47.515 146.719 47.65 147.079 47.65C147.349 47.65 147.604 47.575 147.844 47.425C148.114 47.275 148.399 47.095 148.699 46.885L149.149 47.65C148.519 48.19 147.784 48.61 146.944 48.91C146.134 49.18 145.219 49.315 144.199 49.315C143.089 49.315 142.204 49.165 141.544 48.865C140.884 48.535 140.404 48.1 140.104 47.56C139.834 47.02 139.699 46.39 139.699 45.67C138.979 46.81 138.109 47.71 137.089 48.37C136.069 49 134.824 49.315 133.354 49.315ZM136.549 46.435C137.149 46.435 137.689 46.3 138.169 46.03C138.679 45.73 139.159 45.25 139.609 44.59V35.365C139.339 35.815 138.964 36.22 138.484 36.58C138.004 36.94 137.494 37.315 136.954 37.705C136.414 38.065 135.889 38.47 135.379 38.92C134.899 39.37 134.509 39.925 134.209 40.585C133.909 41.245 133.759 42.04 133.759 42.97C133.759 44.14 134.014 45.01 134.524 45.58C135.034 46.15 135.709 46.435 136.549 46.435ZM171.731 25.735V26.635C171.161 26.785 170.621 27.145 170.111 27.715C169.601 28.255 169.106 29.185 168.626 30.505L162.056 49.09C161.576 49.06 161.081 49.045 160.571 49.045C160.091 49.045 159.611 49.06 159.131 49.09L151.121 29.2C150.641 28.03 150.161 27.325 149.681 27.085C149.231 26.815 148.841 26.68 148.511 26.68V25.735C149.471 25.795 150.461 25.855 151.481 25.915C152.531 25.945 153.671 25.96 154.901 25.96C155.831 25.96 156.806 25.945 157.826 25.915C158.876 25.855 159.851 25.795 160.751 25.735V26.68C160.121 26.68 159.551 26.71 159.041 26.77C158.561 26.83 158.231 27.025 158.051 27.355C157.871 27.685 157.901 28.27 158.141 29.11L163.406 43.06L162.956 43.69L166.511 33.835C167.081 32.215 167.321 30.895 167.231 29.875C167.141 28.825 166.811 28.045 166.241 27.535C165.671 26.995 164.906 26.695 163.946 26.635V25.735C164.396 25.765 164.876 25.795 165.386 25.825C165.926 25.825 166.436 25.84 166.916 25.87C167.426 25.87 167.876 25.87 168.266 25.87C168.866 25.87 169.496 25.855 170.156 25.825C170.816 25.795 171.341 25.765 171.731 25.735ZM183.798 25.105C186.438 25.105 188.508 25.885 190.008 27.445C191.508 29.005 192.258 31.555 192.258 35.095H177.453L177.363 34.24H186.588C186.618 32.77 186.528 31.42 186.318 30.19C186.108 28.93 185.778 27.925 185.328 27.175C184.878 26.425 184.278 26.05 183.528 26.05C182.478 26.05 181.578 26.71 180.828 28.03C180.108 29.35 179.673 31.54 179.523 34.6L179.658 34.87C179.628 35.23 179.598 35.605 179.568 35.995C179.568 36.385 179.568 36.79 179.568 37.21C179.568 39.28 179.853 40.96 180.423 42.25C181.023 43.54 181.773 44.485 182.673 45.085C183.573 45.655 184.488 45.94 185.418 45.94C186.048 45.94 186.693 45.85 187.353 45.67C188.043 45.46 188.733 45.1 189.423 44.59C190.113 44.05 190.758 43.3 191.358 42.34L192.168 42.61C191.808 43.75 191.238 44.86 190.458 45.94C189.678 47.02 188.688 47.905 187.488 48.595C186.288 49.285 184.848 49.63 183.168 49.63C181.128 49.63 179.328 49.195 177.768 48.325C176.208 47.455 174.978 46.135 174.078 44.365C173.208 42.595 172.773 40.345 172.773 37.615C172.773 34.825 173.238 32.5 174.168 30.64C175.128 28.78 176.433 27.4 178.083 26.5C179.763 25.57 181.668 25.105 183.798 25.105ZM204.044 13.765V44.815C204.044 46.075 204.254 46.93 204.674 47.38C205.124 47.83 205.874 48.055 206.924 48.055V49C206.354 48.97 205.499 48.94 204.359 48.91C203.219 48.85 202.064 48.82 200.894 48.82C199.724 48.82 198.539 48.85 197.339 48.91C196.169 48.94 195.284 48.97 194.684 49V48.055C195.734 48.055 196.469 47.83 196.889 47.38C197.339 46.93 197.564 46.075 197.564 44.815V19.165C197.564 17.815 197.354 16.825 196.934 16.195C196.544 15.535 195.794 15.205 194.684 15.205V14.26C195.644 14.35 196.574 14.395 197.474 14.395C198.704 14.395 199.874 14.35 200.984 14.26C202.094 14.14 203.114 13.975 204.044 13.765Z" fill="#102039"/>
<path d="M209.289 17.14C210.039 17.17 211.044 17.2 212.304 17.23C213.594 17.26 214.869 17.275 216.129 17.275C217.569 17.275 218.964 17.26 220.314 17.23C221.664 17.2 222.624 17.185 223.194 17.185C227.364 17.185 230.484 18.01 232.554 19.66C234.624 21.31 235.659 23.44 235.659 26.05C235.659 27.13 235.449 28.27 235.029 29.47C234.609 30.64 233.889 31.735 232.869 32.755C231.879 33.745 230.514 34.555 228.774 35.185C227.034 35.815 224.844 36.13 222.204 36.13H217.614V35.23H221.754C223.524 35.23 224.859 34.825 225.759 34.015C226.689 33.205 227.319 32.14 227.649 30.82C228.009 29.5 228.189 28.075 228.189 26.545C228.189 23.695 227.769 21.565 226.929 20.155C226.089 18.745 224.649 18.04 222.609 18.04C221.439 18.04 220.674 18.295 220.314 18.805C219.984 19.315 219.819 20.35 219.819 21.91V43.96C219.819 45.13 219.939 46 220.179 46.57C220.419 47.14 220.884 47.515 221.574 47.695C222.264 47.875 223.284 47.98 224.634 48.01V49C223.704 48.97 222.504 48.94 221.034 48.91C219.564 48.88 218.019 48.865 216.399 48.865C215.109 48.865 213.849 48.88 212.619 48.91C211.389 48.94 210.279 48.97 209.289 49V48.1C210.249 48.04 210.969 47.92 211.449 47.74C211.929 47.56 212.244 47.2 212.394 46.66C212.574 46.12 212.664 45.31 212.664 44.23V21.91C212.664 20.8 212.574 19.99 212.394 19.48C212.244 18.94 211.914 18.58 211.404 18.4C210.924 18.19 210.219 18.07 209.289 18.04V17.14ZM253.147 25.105C254.107 25.105 254.887 25.315 255.487 25.735C256.087 26.125 256.522 26.635 256.792 27.265C257.092 27.895 257.242 28.555 257.242 29.245C257.242 30.355 256.912 31.27 256.252 31.99C255.622 32.68 254.782 33.025 253.732 33.025C252.682 33.025 251.857 32.77 251.257 32.26C250.687 31.72 250.402 31.015 250.402 30.145C250.402 29.305 250.582 28.615 250.942 28.075C251.332 27.505 251.812 27.025 252.382 26.635C251.962 26.515 251.542 26.53 251.122 26.68C250.552 26.77 250.012 27.01 249.502 27.4C248.992 27.76 248.557 28.225 248.197 28.795C247.837 29.335 247.552 29.935 247.342 30.595C247.132 31.225 247.027 31.84 247.027 32.44V44.365C247.027 45.805 247.372 46.78 248.062 47.29C248.782 47.8 249.847 48.055 251.257 48.055V49C250.567 48.97 249.562 48.94 248.242 48.91C246.922 48.85 245.542 48.82 244.102 48.82C242.902 48.82 241.687 48.85 240.457 48.91C239.227 48.94 238.297 48.97 237.667 49V48.055C238.717 48.055 239.452 47.83 239.872 47.38C240.322 46.93 240.547 46.075 240.547 44.815V30.64C240.547 29.29 240.337 28.3 239.917 27.67C239.527 27.01 238.777 26.68 237.667 26.68V25.735C238.627 25.825 239.557 25.87 240.457 25.87C241.717 25.87 242.887 25.825 243.967 25.735C245.077 25.615 246.097 25.45 247.027 25.24V29.425C247.387 28.615 247.867 27.88 248.467 27.22C249.067 26.56 249.757 26.05 250.537 25.69C251.317 25.3 252.187 25.105 253.147 25.105ZM269.668 25.105C271.858 25.105 273.778 25.51 275.428 26.32C277.078 27.13 278.368 28.435 279.298 30.235C280.228 32.035 280.693 34.42 280.693 37.39C280.693 40.36 280.228 42.745 279.298 44.545C278.368 46.315 277.078 47.605 275.428 48.415C273.778 49.225 271.858 49.63 269.668 49.63C267.538 49.63 265.633 49.225 263.953 48.415C262.303 47.605 260.998 46.315 260.038 44.545C259.108 42.745 258.643 40.36 258.643 37.39C258.643 34.42 259.108 32.035 260.038 30.235C260.998 28.435 262.303 27.13 263.953 26.32C265.633 25.51 267.538 25.105 269.668 25.105ZM269.668 26.005C268.468 26.005 267.463 26.905 266.653 28.705C265.843 30.475 265.438 33.37 265.438 37.39C265.438 41.41 265.843 44.305 266.653 46.075C267.463 47.845 268.468 48.73 269.668 48.73C270.898 48.73 271.903 47.845 272.683 46.075C273.493 44.305 273.898 41.41 273.898 37.39C273.898 33.37 273.493 30.475 272.683 28.705C271.903 26.905 270.898 26.005 269.668 26.005Z" fill="#3FD0D4"/>
<path fill-rule="evenodd" clip-rule="evenodd" d="M11.76 11.9471C9.79286 13.3226 8.01402 14.9489 6.46982 16.7796C12.7801 16.1937 20.7971 17.1503 30.1048 21.8042C40.0441 26.7737 48.0477 26.9417 53.6178 25.8673C53.1124 24.3371 52.4761 22.8664 51.7224 21.4683C45.3461 22.1408 37.1717 21.2506 27.6452 16.4875C21.5957 13.4627 16.2632 12.2168 11.76 11.9471ZM47.9977 16.1666C42.9623 10.5406 35.6447 7 27.5 7C25.1082 7 22.7874 7.3054 20.5751 7.87929C23.5715 8.69687 26.7546 9.89298 30.1048 11.5681C37.0796 15.0555 43.1013 16.1783 47.9977 16.1666ZM54.8087 31.2386C48.0795 32.5674 38.7871 32.2945 27.6452 26.7235C17.2287 21.5153 8.9381 21.5809 3.34662 22.8235C3.058 22.8876 2.77618 22.9549 2.50117 23.0251C1.7691 24.6172 1.18475 26.2914 0.765466 28.0299C1.21328 27.9103 1.67603 27.7966 2.15347 27.6904C8.93692 26.183 18.5214 26.2485 30.1048 32.0403C40.5214 37.2485 48.8119 37.1829 54.4035 35.9403C54.5951 35.8978 54.7839 35.8538 54.9695 35.8084C54.9898 35.3749 55 34.9386 55 34.5C55 33.3966 54.9351 32.3082 54.8087 31.2386ZM54.0716 41.6119C47.4077 42.777 38.3859 42.3298 27.6452 36.9596C17.2287 31.7514 8.9381 31.817 3.34662 33.0595C2.10547 33.3352 0.988955 33.6711 0.00402875 34.0258C0.00134338 34.1835 0 34.3416 0 34.5C0 49.6879 12.3122 62 27.5 62C40.2285 62 50.9373 53.3525 54.0716 41.6119Z" fill="#3FD0D4"/>
</svg>
