<svg width="330" height="330" viewBox="0 0 330 330" fill="none" xmlns="http://www.w3.org/2000/svg">
          <path fill-rule="evenodd" clip-rule="evenodd" d="M70.5601 29.6824C58.7571 37.9354 48.0841 47.6931 38.8189 58.6773C76.6807 55.1622 124.783 60.9019 180.629 88.8251C240.265 118.642 288.286 119.65 321.707 113.204C318.674 104.022 314.856 95.1983 310.334 86.8097C272.077 90.8447 223.03 85.5037 165.871 56.9248C129.574 38.7765 97.5791 31.3006 70.5601 29.6824ZM287.986 54.9999C257.774 21.2437 213.868 0 165 0C150.649 0 136.725 1.83238 123.45 5.27571C141.429 10.1812 160.528 17.3579 180.629 27.4087C222.478 48.3329 258.608 55.0701 287.986 54.9999ZM328.852 145.432C288.477 153.405 232.723 151.767 165.871 118.341C103.372 87.0918 53.6286 87.4853 20.0797 94.9409C18.348 95.3253 16.6571 95.7296 15.007 96.1503C10.6146 105.703 7.10849 115.748 4.5928 126.18C7.27969 125.462 10.0562 124.779 12.9208 124.143C53.6215 115.098 111.128 115.491 180.629 150.241C243.128 181.491 292.872 181.097 326.421 173.642C327.57 173.387 328.703 173.123 329.817 172.851C329.939 170.249 330 167.632 330 165C330 158.379 329.611 151.849 328.852 145.432ZM324.43 207.671C284.446 214.662 230.315 211.979 165.871 179.758C103.372 148.508 53.6286 148.902 20.0797 156.357C12.6328 158.011 5.93373 160.027 0.0241725 162.154C0.00806026 163.101 0 164.05 0 165C0 256.127 73.873 330 165 330C241.371 330 305.624 278.115 324.43 207.671Z" fill="#3FD0D4"/>
        </svg> 